<svg id="SvgjsSvg1001" width="288" height="288" xmlns="http://www.w3.org/2000/svg" version="1.1" xmlns:xlink="http://www.w3.org/1999/xlink" xmlns:svgjs="http://svgjs.com/svgjs"><defs id="SvgjsDefs1002"></defs><g id="SvgjsG1008"><svg xmlns="http://www.w3.org/2000/svg" width="288" height="288" enable-background="new 0 0 443.04 392.16" viewBox="0 0 443.04 392.16"><path fill-rule="evenodd" d="M118.08 56.64c-1.404-1.316-3.739-1.701-5.28-2.88C114.542 51.342 117.999 54.325 118.08 56.64zM125.28 56.64c.078-.563.875-.405 1.44-.48.278 1.558-.327 2.233-.48 3.36-.896-.383-1.758-.802-2.88-.96.72-.56 1.174-1.386 2.4-1.44C125.848 56.712 125.573 56.667 125.28 56.64zM139.2 57.12c.047 1.488-.218 2.663-.96 3.36 1.621 2.06 3.595 3.765 5.28 5.76-2.134 1.789-3.451-1.331-4.8-1.92-1.374 1.515 1.827 1.366 1.92 2.88.578 2.658-1.372 2.789-1.44 4.8-2.868-.447-4.812.075-7.68-.96-.628-1.932-1.25-3.87-.96-6.72 1.467.347 1.749-.491 2.88-.48-.398-2.796 1.863-3.852.48-6.24C134.668 55.803 137.884 55.842 139.2 57.12zM193.92 70.56c3.979-.779 2.675 3.725 2.88 6.72-.897-.383-1.758-.802-2.88-.96C193.92 74.4 193.92 72.48 193.92 70.56zM239.52 72.96c1.944-.184 2.209 1.311 3.36 1.92-.394 1.527-.307 3.534-.96 4.8C239.274 79.286 239.383 76.136 239.52 72.96zM204.48 73.92c3.304-.077 4.574 4.716 1.44 5.76-.846-.434-1.486-1.074-1.92-1.92C205.007 76.256 204.699 76.217 204.48 73.92zM155.04 78.24c.64 0 1.28 0 1.92 0-1.968 4.042 2.114 5.34 5.28 5.76.715 11.748-4.058 3.495-7.2 0C155.04 82.08 155.04 80.16 155.04 78.24zM98.4 79.2c1.949.292 2.425 2.054 2.88 3.84-.861.061-1.012-.587-1.92-.48-2.622 3.716 1.614 7.236 6.24 6.72.229 1.83-2.222.979-1.44 3.36-4.806-2.316-5.337 3.556-9.6 3.36-1.611-.949-.386-4.734-1.92-5.76 1.739-.981 2.935-2.505 2.4-5.76-.558.078-.854-.106-.96-.48-1.785-.505-.941 1.619-1.92 1.92-2.187-.443.726-3.19.48-4.8 1.832-.232 3.063.136 3.84.96C97.568 81.568 98.224 80.624 98.4 79.2zM118.08 79.2c1.785.311 2.835 1.642 1.92 3.36C118.649 82.151 117.844 81.196 118.08 79.2zM114.24 83.04c1.172 1.374 2.048 5.111 1.44 6.72C112.069 89.998 113.379 84.848 114.24 83.04zM176.64 85.44c4.519-.608 3.347 6.796 3.36 9.12-.861.061-1.012-.587-1.92-.48C179.667 90.688 175.712 89.669 176.64 85.44zM78.72 88.32c.8 0 1.6 0 2.4 0 .153 1.113-.077 1.843-.48 2.4C79.131 90.789 78.991 89.489 78.72 88.32zM73.92 90.72c-.342 1.578-2.225 1.615-2.4 3.36C70.501 93.029 72.016 90.439 73.92 90.72zM121.44 94.08c.48 0 .96 0 1.44 0 .616.63.616 1.77 0 2.4 1.512.232 1.087-1.473 2.88-.96-.216 1.824 1.244 3.415 0 4.8C123.63 98.93 122.176 96.864 121.44 94.08zM176.64 96.96c-1.813.252-2.253.674-3.36-.48-.35-1.31.954-.966.96-1.92C175.95 94.45 176.75 95.25 176.64 96.96zM86.4 95.04c.508 2.428-1.346 2.494-3.36 2.4C83.46 95.94 84.374 94.934 86.4 95.04zM216 95.52c.64 0 1.28 0 1.92 0 .347 1.467-.491 1.749-.48 2.88C216.277 98.123 216.373 96.587 216 95.52zM176.64 96.96c1.378 1.255-.449 3.364-1.92 3.36.14-.294 1.194-1.848 0-1.92C174.515 97.074 176.509 97.95 176.64 96.96zM217.92 98.4c2.036 1.484 2.286 4.754 2.4 8.16C216.296 106.396 216.652 101.313 217.92 98.4zM97.92 101.76c-.017 1.583-1.365 1.835-2.88 1.92-.35 1.31.954.966.96 1.92-.394 1.206-.628 2.572-2.4 2.4-.149-1.451.533-3.733-.96-3.84C94.149 103.406 96.025 99.069 97.92 101.76zM43.2 127.68c-1.63-.13-3.892.372-4.8-.48C38.545 125.766 43.709 125.502 43.2 127.68zM263.52 133.44c2.342.287-.04 2.8.48 4.32-1.014.638-1.419-.236-2.881.48.852.908.35 3.17.48 4.8-1.469-.348-1.412.828-2.88.48 0-1.44 0-2.88 0-4.32.64 0 1.28 0 1.92 0 .234-1.515-.865-1.695-.48-3.36C261.161 134.921 263.119 134.959 263.52 133.44zM273.6 141.12c0 .96 0 1.92 0 2.88-2.062-1.821-2.041 1.513-3.84 1.44C271 143.959 270.493 140.732 273.6 141.12zM279.36 141.6c.641.723.156 2.071 0 2.88-1.049-.071-1.03-1.209-.96-2.4C278.958 142.158 279.254 141.974 279.36 141.6zM54.72 142.08c2.952 1.048 3.584 4.415 3.36 8.64-1.349-1.211-1.054-4.066-1.92-5.76-.995.286-3.153-.593-3.36.48C51.651 144.414 53.195 142.022 54.72 142.08zM266.88 149.28c.64 0 1.279 0 1.92 0 .451 2.692-1.226 3.255-1.44 5.28C266.394 153.338 266.129 150.885 266.88 149.28zM77.28 149.76c.668 1.184 2.702 2.708 1.44 4.32C77.596 153.353 76.191 151.199 77.28 149.76zM54.24 152.16c.48 0 .96 0 1.44 0 .403 1.196.628 2.571.48 4.32C54.719 155.841 53.881 154.599 54.24 152.16zM78.72 169.92c1.254.202.365 3.258.96 5.28C77.839 175.058 77.87 171.239 78.72 169.92zM108.96 173.76c2.299.102 1.818 2.982 4.8 2.4.061.861-.587 1.012-.48 1.92C110.108 177.349 109.628 176.406 108.96 173.76zM158.88 178.56C157.922 184.857 153.761 176.99 158.88 178.56L158.88 178.56zM159.84 185.76c1.886.029 1.167 4.732-.96 3.84C157.528 188.107 159.836 187.364 159.84 185.76zM143.52 190.56c.906.694 2.128 1.072 1.92 2.88-.96 0-1.92 0-2.88 0C142.435 192.035 143.645 191.965 143.52 190.56zM103.2 192.48c-.031 1.729-1.272 2.248-2.4 2.88C100.251 193.085 101.433 190.953 103.2 192.48zM81.12 193.44c.64 0 1.28 0 1.92 0 .063 1.184.073 2.313-.48 2.88C80.841 196.6 81.101 194.899 81.12 193.44zM48 205.44c-1.184.412-.457-2.327-2.88-1.921.071-2.648.701-4.739 1.44-6.72 1.739-.459.488 2.072 1.44 2.4 1.756.315 1.841-1.039 3.36-.96-1.694 4.854.122 5.033.48 10.56-.914.206-1.206 1.034-2.4.96 1.035-1.049-.123-1.03-1.44-.96.553-.567.543-1.696.48-2.88C47.927 207.393 46.827 206.293 48 205.44zM280.32 198.24c.842.438 1.668.893 1.44 2.399-.641 0-1.28 0-1.92 0C280.243 200.083 280.473 199.354 280.32 198.24zM95.04 199.68c-.364 1.236-1.532 1.668-3.36 1.44C92.117 199.957 93.609 199.849 95.04 199.68zM167.04 201.6c2.099-.032.555 3.018 0 3.36C164.979 204.321 166.909 202.815 167.04 201.6zM51.36 212.16c-.081-1.041 1.703-.218 2.4-.48C54.023 213.644 51.688 213.303 51.36 212.16zM171.36 213.6c-1.48 5.88-6.601 8.12-6.72 15.36-4.365 2.035-8.33 4.471-11.52 7.68-1.221-.539-2.341-1.179-3.36-1.92.328-7.192 8.392-6.647 12.96-9.6C162.432 218.111 164.812 213.771 171.36 213.6zM44.64 216c.384 2.701-1.848 1.731-2.88.96C41.813 215.733 43.367 216.007 44.64 216zM115.2 216.96c1.266-.146 1.238 1.002 1.44 1.92-.614.656-2.267.656-2.88 0C113.339 217.339 115.005 217.885 115.2 216.96zM174.24 252.96c-1.78-.34-2.06.82-3.84.48C169.504 250.469 175.094 249.031 174.24 252.96zM151.2 257.28c5.516 3.36-1.363 15.18-5.76 8.64C146.018 261.697 150.13 261.011 151.2 257.28zM173.28 258.24c.64 0 1.28 0 1.92 0 .276.844-.581 2.82.48 2.88-.407 1.407-1.545-.287-2.4 0C173.28 260.16 173.28 259.2 173.28 258.24zM174.72 262.56c1.06.061.204 2.036.48 2.881-1.237.683-2.716 1.124-2.88 2.88-1.784-.313-1.623-2.854-.96-4.32C173.374 263.553 175.228 265.729 174.72 262.56zM183.36 266.4c2.712-1.419 2.955 3.755 6.72 2.88.034 4.321-5.026.947-8.64 1.92.758 2.233 5.327 2.84 3.36 6.24-.637-1.263-1.856-1.203-1.44.96-2.544-.941-4.095-1.575-7.68-.96-.652.148-.398 1.201-.48 1.92-1.665-.386-1.845.715-3.36.479-.712-.568-.747-1.813-1.44-2.399 1.804-4.597 8.415-4.386 10.08-9.12 1.793-.514 1.368 1.191 2.88.96C184.656 268.868 185.403 266.507 183.36 266.4zM140.64 278.4c-1.255-1.725-.018-4.275.48-5.761.76.04 1.831-.23 1.92.48.961-.639 1.069-2.131 1.44-3.36.76-.04 1.831.231 1.92-.479C149.622 272.811 145.579 278.586 140.64 278.4zM154.08 274.56c.148-.651 1.202-.397 1.92-.479 0 .479 0 .96 0 1.439C154.49 276.069 154.833 274.767 154.08 274.56zM156.48 276c1.622-.767 2.048 2.037 2.88.48 1.526.233-.807 4.326 1.44 3.84-2.112 1.924-2.471-1.988-4.8-1.44C155.937 277.696 155.927 276.567 156.48 276zM135.84 278.88c.64 0 1.28 0 1.92 0 .153 1.113-.077 1.843-.48 2.4C136.332 280.948 136 280 135.84 278.88zM151.68 282.24c.671 2.136-2.202 2.6-1.92.479C150.621 282.781 150.772 282.133 151.68 282.24z" clip-rule="evenodd" fill="#fe0001" class="color000 svgShape"></path><path fill-rule="evenodd" d="M156,0c6.4,0,12.8,0,19.2,0c53.536,2.929,95.325,30.62,120.48,63.36
			c25.28,32.904,44.089,84.11,30.72,142.081c21.464,0.755,40.783,11.153,55.2,22.079c4.542,3.443,11.771,6.899,14.4,11.04
			c1.514,2.385,2.175,7.371,3.84,10.561c3.68,7.052,10.696,12.468,11.52,19.68c0.41,3.594-1.01,7.547-0.479,11.04
			c1.247,8.219,8.866,15.839,14.399,23.04c4.158,5.411,12.71,15.219,14.4,22.561c0.624,2.709,0.185,5.612,0.479,8.64
			c0.987,10.111,5.306,21.641,0,32.64c-4.437-2.838-10.369-5.441-15.84-8.16c-1.432-0.711-2.815-3.222-4.319-1.439
			c-1.585,4.016-0.764,10.437-0.961,15.84c-3.023,2.783-6.575,5.222-11.039,6.72c-3.681,1.235-11.934,2.787-13.44-0.96
			c-2.69-6.688,6.907-7.844,8.16-12c1.42-4.711-1.171-18.869-2.88-21.6c-4.133-6.604-15.498-10.533-23.521-15.36
			c-6.107-3.675-12.275-6.964-17.76-8.64c1.648,5.854,2.28,9.407,4.32,13.439c2.495,4.935,8.033,7.656,8.64,13.921
			c0.428,4.413-2.078,8.04-4.32,12.479c-2.061,4.08-2.863,7.943-4.8,11.521c-1.478,2.729-4.306,4.214-6.72,8.159
			c-1.517,2.478-2.104,6.741-4.32,8.16c-2.001,1.282-7.241,2.101-11.52,2.4c-3.778,0.265-10.307,0.291-10.561-3.36
			c-0.284-4.084,10.202-7.115,12.96-10.08c4.692-5.043,9.413-18.296,5.28-29.279c-2.345-6.232-11.64-16.809-16.8-22.08
			c-7.035-7.188-14.491-12.872-19.681-19.2c-2.366-2.886-4.383-8.411-7.68-9.601c-6.611-2.384-14.687,0.854-22.56,0.96
			c-7.583,0.103-16.391-2.303-20.641,2.881c-0.003,14.557-2.98,29.085-1.92,44.64c0.2,2.93,1.341,6.046,0.96,9.12
			c-0.444,3.591-3.103,6.231-4.319,10.08c-2.813,8.893-2.563,15.819-8.641,17.76c-2.121,0.677-7.413,0.055-11.04,0.479
			c-5.162,0.605-15.984,6.089-17.28-0.479c-1.206-6.113,8.272-9.153,10.081-14.4c5.245-15.216-3.021-32.99-3.36-48
			c-26.004,8.947-57.134,13.521-85.44,8.641c-54.292-9.361-92.249-39.139-116.16-79.681C10.85,228.931,1.417,201.848,0,173.76
			c0-6.24,0-12.48,0-18.72C2.248,110.36,24.578,72.862,49.44,48C75.347,22.093,110.16,3.009,156,0z M191.52,34.08
			c0.283-1.723-0.558-2.322-0.96-3.36c-0.96,0-1.92,0-2.88,0C188.643,32.157,189.385,33.814,191.52,34.08z M94.56,42.24
			c0.257-3.104,6.657-0.063,7.2-2.88C99.59,36.27,90.477,39.508,94.56,42.24z M193.92,41.76c0.02-1.459,0.279-3.159-1.44-2.88
			C192.457,40.343,192.916,41.324,193.92,41.76z M163.68,40.8c0.294,1.306,1.318,1.881,2.88,1.92c0.421-1.541-1.245-0.995-1.44-1.92
			c0.565-0.075,1.362,0.083,1.44-0.48C165.093,39.973,164.811,40.811,163.68,40.8z M108.48,42.72c0.448,0.513,1.771,0.149,1.44,1.44
			c2.535-0.186,4.575-0.866,5.28-2.88C112.876,40.267,109.404,40.883,108.48,42.72z M156.48,42.24c0.045-1.485-1.45-1.431-2.88-1.44
			C153.485,42.414,155.383,43.28,156.48,42.24z M117.6,43.68c1.602-0.001,1.639,1.561,3.36,1.44c0.986-1.91-0.269-3.683-2.4-3.84
			C118.354,42.194,117.526,42.486,117.6,43.68z M187.2,46.56c1.194-2.239-1.794-5.912-3.84-4.8
			C184.605,43.395,184.65,46.23,187.2,46.56z M164.16,47.52c1.277-2.534,0.974-5.259-1.92-5.76
			C162.026,42.836,161.839,47.44,164.16,47.52z M145.44,49.44c1.639,0.122,2.307,1.214,4.32,0.96c0.945-2.733-0.863-4.646-0.48-8.16
			C145.432,42.757,146.974,46.228,145.44,49.44z M114.72,43.2c0.09,1.35,0.835,2.045,2.4,1.92
			C116.951,43.79,115.682,42.294,114.72,43.2z M79.2,227.04c-0.77-1.951-2.544-2.896-5.76-2.4c0.107-0.907-0.541-1.059-0.48-1.92
			c0.316-1.604,1.493-2.347,1.92-3.84c-1.057-0.383-1.917-0.964-1.92-2.399c1.551-0.976,5.331-2.613,5.76,0.479
			c-1.508-0.228-1.961,0.599-2.4,1.44c1.231,0.049,0.771,1.788,1.44,2.399c1.665-0.385,1.845,0.715,3.36,0.48
			c0.054-0.586,0.144-1.137,0.96-0.96c0.398-1.254-1.452-2.634,0-3.36c0.936,1.624,2.576,2.544,4.32,3.36
			c-0.403,1.357-0.557,2.963-0.96,4.319c1.991,2.81,4.747,4.854,8.16,6.24c-1.528,0.803,1.481,1.023,0.48,2.88
			c2.003-0.37,1.625-3.498,0-3.84c3.138-0.062,5.082-1.318,8.16-1.439c-0.107,0.907,0.541,1.059,0.48,1.92
			c-3.489-0.609-3.504,2.256-5.28,3.359c-0.56-1.186-1.255-1.771-1.92-0.479c0.778,2.775,2.945-1.085,4.32,0.96
			c-0.434,1.315-1.767-0.938-1.92,0.96c3.503,1.107,5.491-3.346,7.68-0.48c-0.922,1.798-1.794,3.646-2.4,5.761
			c0.086,1.354,2.281,0.598,1.92,2.399c-2.995-2.526-6.877,0.996-4.32,4.32c2.391-0.169,3.514-1.606,6.24-1.44
			c0.206,0.914,1.034,1.206,0.96,2.4c-1.183-0.063-2.313-0.073-2.88,0.479c-0.421,1.541,1.245,0.995,1.44,1.92
			c3.204-0.476,4.151-3.209,3.84-7.199c5.137,0.816,2.824-5.816,7.2-5.761c0.846,0.435,0.793,1.768,1.92,1.92
			c0.832-0.607,1.258-1.622,2.88-1.439c0.35,2.43-1.317,2.843-1.44,4.8c2.887,0.167,3.833-1.606,6.72-1.439
			c0.779-3.221,3.959-4.041,4.8-7.2c-2.208-1.312-7.658,0.618-9.12-1.44c1.708-1.333,4.807-1.272,5.28-3.84
			c-1.195-0.493-3.578-0.72-1.44-1.92c-1.198-0.342-1.973,2.112-2.88,0.479c1.031-1.401,1.435-0.452,3.36-0.96
			c1.354,0.087,0.599,2.282,2.4,1.921c5.522-0.721,9.849-5.188,10.08-9.601c0.021,0.511-0.226,1.219-0.48,0.48
			c0.231-2.169,3.62-1.18,5.28-1.92c0.806-1.358-1.274-1.634,0.96-2.4c-5.035-3.182-9.027,3.128-13.44,1.92
			c-0.695,1.815,1.319,0.921,0.96,2.4c-2.955,1.067-5.227,3.928-6.24,4.319c-3.16-2.41-0.908-9.583,3.36-9.12
			c0.988,0.132,0.452,1.788,1.44,1.921c-0.206-0.773,1.79-1.611,1.92-0.48c-0.373,0.107-0.947,0.014-0.96,0.48
			c3.103,1.223,0.562-7.031,4.8-6.24c0.153,1.113-0.077,1.843-0.48,2.399c2.58,0.34,4.101-0.379,5.76-0.96
			c0.347-1.467-0.491-1.749-0.48-2.88c2.865-0.495,1.878-4.842,6.24-3.84c0.25,3.187,3.269,4.098,1.92,9.6
			c-1.798,0.122-3.087,0.754-3.84,1.921c4.5,2.706-1.536,7.726-0.96,12.479c0.995,0.285,3.153-0.593,3.36,0.48
			c0.1,1.379-0.122,2.438-0.96,2.88c-0.054-0.586-0.144-1.137-0.96-0.96c-0.704,1.696-2.132,2.667-1.92,5.279
			c0.13,0.99,2.125,0.115,1.92,1.44c-1.173,0.907-2.326,1.834-3.84,2.4c0,1.119,0,2.239,0,3.359c0.918,0.202,2.066,0.174,1.92,1.44
			c-1.707,3.069-7.614,1.951-8.16-1.44c1.064-1.336,3.694-1.105,4.32-2.88c-0.877-0.723-1.129-2.07-1.92-2.88
			c-1.156-0.15-2.324,2.095-3.36,0.479c2.348,0.268,1.146-3.014,1.44-4.8c-3.123,0.007-3.505,3.347-2.88,5.76
			c-3.654-0.293-4.628,2.092-7.2,2.881c0.027,1.732,1.196,2.323,1.44,3.84c-1.794-0.034-2.749,0.771-3.36,1.92
			c2.825,1.538,4.764-1.516,7.2-1.92c-1.092,2.748-3.005,4.675-7.2,4.319c0.708,2.788-0.959,3.201-1.44,4.801
			c0.148,3.372,3.423,3.617,4.32,6.239c-0.56,1.561-1.255-0.015-1.92,1.44c0.079,2.946,2.373,5.197,5.28,3.84
			c0.443-2.203-1.201-2.319-0.96-4.32c1.919-0.48,3.73-1.069,5.28-1.92c0.214-2.133-1.3-2.539-1.92-3.84
			c2.226-1.361,3.929-0.781,5.76,0.48c-0.057-2.297,1.782-2.698,4.32-2.4c1.354-3.102,4.755-5.709,3.36-10.08
			c1.495-0.585,3.043-1.117,5.28-0.96c-0.517,2.437,0.887,2.953,1.92,3.84c-1.073,2.287-3.463,3.258-3.36,6.721
			c-2.43,0.45-3.622,2.138-5.76,2.88c-0.063,1.183-0.073,2.313,0.48,2.88c-2.047,0.513-3.112,2.008-3.84,3.84
			c-0.899-2.142-3.253-2.826-3.36-5.76c-2.262,3.938-4.819,8.854-6.72,14.399c2.573-0.108-0.426,3.576,1.92,4.32
			c0.224-0.918-1.479-2.066,0.48-1.92c0.491,4.811-4.062,4.578-3.84,9.12c-0.94-0.799-2.834,0.357-2.88,1.92
			c-0.108,0.907,0.541,1.059,0.48,1.92c4.866,0.387,8.081-0.879,11.52-1.92c0.292-1.147-0.603-3.482,0.48-3.84
			c0.899,0.701,3.181,0.019,3.84,0.96c-1.611,4.372-5.311,6.436-4.32,12c1.191-0.729,1.954-1.886,3.84-1.92
			c-0.44,1.202,1.934,2.966,0,3.84c-0.075-0.565,0.083-1.362-0.48-1.44c-0.148,1.132-1.667,0.894-1.44,2.4
			c3.799-0.721,2.64,2.529,3.84,3.36c1.207-0.554,1.511-2.01,2.4-2.881c1.585,1.156,4.251,4.338,5.76,1.44
			c-1.241-1.64-4.867-0.894-5.76-2.88c1.47-1.041-0.46-2.702,0-4.32c2.155-0.404,3.795-1.324,5.28-2.399
			c-0.011,1.131,0.827,1.413,0.48,2.88c3.656-0.184,4.838-2.842,9.12-2.4c0.262-0.697-0.561-2.48,0.48-2.399
			c1.719-0.279,1.459,1.42,1.44,2.88c2.135,0.265,2.729,2.07,5.28,1.92c-0.989-5.847,6.353-6.931,9.12-10.561
			c0.421-1.541-1.245-0.995-1.44-1.92c1.553,0.594,0.367-1.553,1.92-0.96c2.744,4.991,5.205,8.163,10.08,3.84
			c-1.476-2.665,1.652-4.747-0.96-5.76c1.31-0.35,0.966,0.954,1.92,0.96c0.714-2.186,0.684-3.566,0.96-5.28
			c2.035-0.427,3.399,1.261,4.8,0c-5.661-8.101-10.066-20.388-16.32-24.96c-0.085-1.685,1.621-1.578,1.92-2.88
			c-2.697-5.484-5.579-12.33-7.68-20.16c-4.243-15.813-3.526-35.936-9.6-48c-1.953-3.879-10.158-13.246-15.84-13.92
			c-6.1-3.461-7.448-13.273-0.96-17.28c3.339-0.458,3.71,2.05,4.8,3.84c22.352,2.681-2.368-33.775,12.96-39.36
			c9.859,9.661,17.074,21.967,33.6,24.96c8.425,9.284,18.051,20.518,26.88,30.24c3.346,3.684,8.014,6.74,8.16,12.48
			c-1.125,1.275-2.032,2.768-3.84,3.36c-2.593,20.078,21.904,21.905,36.96,20.16c-0.331-1.931,0.46-2.74,0.479-4.32
			c-0.718-0.082-1.771,0.172-1.92-0.479c1.317-1.823,0.727-3.731,0-5.76c-1.19,0.071-2.329,0.089-2.399-0.96
			c1.226,0.367,2.206,0.707,2.88-0.48c-1.819-0.394-0.738-3.17,0.96-2.88c0.011,1.13-0.827,1.413-0.48,2.88
			c1.915-0.475,1.445,1.435,3.36,0.96c0.668-2.097,0.014-2.835-0.48-4.8c-1.131-0.011-1.413,0.827-2.88,0.48
			c-1.331-5.164,1.185-10.225,4.8-12c1.058,0.382,1.917,0.963,1.92,2.4c1.196-0.404,2.572-0.628,4.32-0.48
			c-0.396,1.356,0.677,1.243,0.48,2.4c2.477-1.523,4.675-3.325,7.199-4.8c-0.873-1.518-2.966-0.387-3.84-0.96
			c0.106-2.666-1.82-3.3-3.84-3.84c-0.459,0.894,1.438,1.604,0,1.92c-0.836-0.036-1.493,0.107-1.92,0.48
			c-1.478-1.563-0.829-5.251-0.96-8.16c-2.5-0.26-2.438,2.042-2.4,4.32c-1.156-0.196-1.043,0.876-2.399,0.48
			c-0.628,1.633,1.069,3.35,0,3.84c-0.415-0.865-1.056-1.505-1.92-1.92c0-0.96,0-1.92,0-2.88c3.073-0.219,0.947-5.912,0.479-7.2
			c2.364-2.436,2.496-7.104,4.32-10.08c1.215,4.62,4.042,8.602,5.28,14.4c3.745-1.855,1.845-9.355,3.84-12.96
			c2.73,2.372,1.452,6.67,1.439,11.04c-3.014-0.114-2.456,7.083-0.479,7.68c1.276-0.963,2.396-2.083,3.359-3.36
			c0.152-1.912-2.22-1.3-2.399-2.88c3.322-0.198,4.393-2.648,4.8-5.76c-1.926-2.714-4.045-5.235-5.28-8.64
			c1.94-5.167,1.343-14.314-2.88-16.32c-0.082,0.718,0.172,1.771-0.479,1.92c-4.336,0.016-6.565-2.075-7.2-5.76
			c-5.198-0.722-8.935-2.906-12-5.76c1.266,0.146,1.238-1.002,1.439-1.92c-1.768-0.263-1.355-2.766-1.92-5.28
			c-0.511-1.14-2.211,1.029-2.88-0.48c0.373-0.107,0.947-0.013,0.96-0.48c-1.632,0.144-3.563,3.406-4.8,0.96
			c0.3-1.78,1.35-2.811,1.92-4.32c-1.997-0.723-5.235-0.204-6.24-1.92c-0.229-6.171-2.757-10.042-4.319-14.88
			c1.633-0.627,3.35,1.069,3.84,0c-1.701-2.069-3.206-1.682-6.24-1.92c-1.498,0.855,0.154,1.88-0.96,2.88
			c-0.989-2.21-4.325-2.075-3.84-5.76c1.092-0.233,2.452-0.953,3.36,0c0.665-3.499-1.101-1.713-1.44-3.84
			c1.423,0.336,0.666-3.114,3.36-1.44c3.619,2.25,10.223-4.866,12-0.48c-0.611-0.654-2.352-0.741-2.4,0.48
			c0.991,2.217,4.422,5.448,2.4,7.68c3.762-1.069,4.522,2.975,6.72,1.92c0.193-1.487-2.808-3.902-2.88-6.72
			c-0.908-0.107-1.06,0.541-1.92,0.48c0.183-1.806-2.28-3.448-0.96-4.8c0.593,2.726,0.974-1.489,2.88-0.48c0-1.12,0-2.24,0-3.36
			c-1.35-0.571-2.76-1.08-4.32-1.44c0-0.64,0-1.28,0-1.92c-4.071-0.568-3.597-5.683-6.72-7.2c-0.3,0.359-5.288,0.138-6.24,1.44
			c-0.637-7.686-11.554,0.676-13.92-5.28c1.14-0.3,2.234-0.645,2.4-1.92c-0.747-0.125-0.333-1.053,0-1.44
			c-3.019,0.299-4.062-1.379-6.721-1.44c-0.955,1.125-1.105,3.054-0.96,5.28c5.452,2.547,2.199,13.801,9.12,14.88
			c0.148,3.188,0.057,6.136-1.92,7.2c-2.209-0.363-3.178-4.486-5.28-3.36c0.539,0.102,0.748,0.533,0.96,0.96
			c-1.077-1.623-3.162,0.887-3.359,0c1.061-1.053-0.475-1.961,0-3.84c-1.604-1.07-3.677-1.07-5.28,0
			c-0.107,5.013-1.777,8.463-3.36,12c-5.346-2.341-1.196-10.269-0.48-14.88c1.512-0.232,1.087,1.473,2.88,0.96
			c0.165-3.227,3.777-7.479,0.96-10.56c-1.272,0.328-0.537,2.663-2.4,2.4c-1.837-1.203-2.526-3.554-3.84-5.28
			c-2.179-0.258-1.282,2.559-3.36,2.4c-8.146-2.333-5.092-15.455-13.44-15.84c2.038,5.162,5.523,8.876,7.68,13.92
			c-3.472-0.615-3.256,0.161-5.76,0.96c-1.734-0.986-2.56-2.88-3.36-4.8c-1.604,0.713-2.347,1.232-3.84,0
			c-1.135,1.668-1.306,4.342-1.44,5.76c-1.857,0.417-1.708-1.172-2.88-1.44c0.725,1.579,0.531,4.103-0.96,4.8
			c-1.791-0.929-4.329-1.111-5.76-2.4c-1.478,1.722-3.566,2.834-5.28,4.32c1.505-0.225,1.354,1.207,1.92,1.92
			c-2.491-0.73-1.327,2.193-2.88,2.4c-1.618-0.461-1.839-2.321-2.4-3.84c1.357-0.396,1.244,0.677,2.4,0.48
			c-0.666-1.414-1.132-3.028-1.44-4.8c-2.609-0.049-4.957,0.163-6.24,1.44c1.124,3.676,4.381,5.219,5.76,8.64
			c-0.756,0.043-0.375,1.224-1.44,0.96c-0.659-1.094,1.237-1.805,0-1.92c-1.3,1.58-3.103,2.657-5.28,3.36
			c-3.645-3.484-7.314-8.407-6.24-13.92c-1.759-0.159-2.667,0.533-3.84,0.96c-2.059-2.261-6.617-2.023-5.76-7.2
			c-10.27,2.125-3.554-12.916-7.68-16.32c0.436,0.36-1.938,2.27-0.96-0.48c-1.573,0.027-1.835,1.365-3.84,0.96
			c-0.005-1.275,0.182-2.741-0.48-3.36c-1.503,0.416-2.651,1.189-3.36,2.4c0.354,0.766,2.35-0.109,1.92,1.44
			c-0.233,0.567-0.512,1.088-0.96,1.44c-1.478,0.357-0.922-1.317-2.4-0.96c0.369,2.289-0.678,3.162-1.92,3.84
			c-6.215-1.145-11.443-3.277-16.32-5.76c0.186,1.734,2.634,1.206,1.92,3.84c-0.597,1.323-2.451,1.389-3.36,2.4
			c0.368,1.751,2.882,3.243,1.44,5.28c-1.559-1.001-3.922-1.198-3.84-3.84c-1.79-0.51-0.76,1.8-2.4,1.44
			c-1.301-0.299-1.195-2.005-2.88-1.92c-1.431,1.94-4.484,3.127-3.84,5.76c-0.96,0-1.92,0-2.88,0c0.158,2.078-0.662,3.179-1.92,3.84
			c-1.155-1.584-2.551,0.611-3.36,0.96c0.837,2.875,2.872,4.776,5.28,4.8c-1.509,0.57-2.54,1.62-4.32,1.92
			c0.145-3.505-5.268-1.452-4.8-5.28c-3.185,0.335-3.463,3.577-5.76,4.8c-1.12,0-2.24,0-3.36,0c-1.39,2.211-6.005,3.483-5.76,5.76
			c-1.234-1.242-2.035,0.402-2.4,1.44c0.567,0.233,1.088,0.512,1.44,0.96c-1.763,0.157-3.291,0.549-4.32,1.44c0,0.96,0,1.92,0,2.88
			c1.695,0.225,4.625-0.785,4.32,1.44c-0.107,1.493-2.389,0.811-3.84,0.96c-0.044,4.756-3.36,6.24-2.88,11.52
			c0.698,0.263,2.481-0.561,2.4,0.48c-0.277,1.163-1.813,1.067-2.88,1.44c2.683,13.882-10.98,11.42-13.92,19.68
			c0.8,2.484,3.14,4.379-0.48,5.76c1.536-2.398-0.957-4.322-0.96-6.72c0.894-0.066,1.604-0.316,1.92-0.96
			c-3.871-0.289-3.777-4.542-5.76-6.72c-3.969,0.511-7.479,1.481-9.6,3.84c-2.139,0.059-2.976-1.184-4.8-1.44
			c-1.221,1.179-1.715,3.085-1.44,5.76c-0.96,0-1.92,0-2.88,0c-0.685,2.089,1.641,2.207,0.48,3.36
			c-1.156,0.196-1.043-0.876-2.4-0.48c-1.541,1.819-2.627,4.093-2.4,7.68c2.665,0.104,2.566-2.554,5.76-1.92
			c1.256,3.965-0.396,7.911,0,12.48c1.613,0.013,2.539-0.661,3.36-1.44c-3.201-4.125,2.941-8.499,0.96-12.96
			c3.075-0.355,4.85,0.59,5.76,2.4c-0.852,0.908-0.35,3.17-0.48,4.8c1.6,0,3.2,0,4.8,0c1.193,0.567,0.482,3.038,1.92,3.36
			c0.463-0.977,1.843-1.037,3.36-0.96c-1.166,1.892-0.31,5.251,0.96,6.24c-0.961,0.958-1.402,2.438-2.88,2.88
			c-1.166-2.354-0.897-6.143-2.88-7.68c-0.06,1.06-2.036,0.204-2.88,0.48c-0.479,3.682-1.292,7.027-0.96,11.52
			c3.209,2.5,6.857-0.538,10.56-0.48c0.361,4.919,4.515,6.045,3.84,12c2.019,0.099,2.016-1.824,3.84-1.92
			c-1.409,1.511-0.673,3.048,0,4.8c-4.688,3.886-8.231,11.161-6.24,20.16c1.404,0.996,3.72,1.08,4.8,2.4
			c-0.326,1.754-0.67,3.491-0.48,5.76c-1.122,0.158-1.983,0.577-2.88,0.96c0.331-1.931-0.46-2.74-0.48-4.32
			c-3.498,1.142-2.059,7.221-4.32,9.6c-2.457,0.377-3.487-0.674-5.76-0.48c-0.135-1.625-0.763-2.756-0.48-4.8
			c-1.317-0.763-3.482-0.678-4.8-1.44c1.467,4.095-0.445,6.64-2.4,8.64c1.146,4.642,9.039,4.461,6.72,11.04
			c1.452,0.309,2.77,0.75,2.88,2.399c-0.34,3.021-4.25,2.471-5.76,4.32c1.328,0.592,2.57,1.271,4.32,1.44
			c-0.448,2.688,1.604,2.876,2.88,3.84c0.026,2.214-0.213,4.692,0.48,6.239c2.365-0.813,4.437-0.039,6.72,0.48
			c3.244-1.193,3.875-7.471,3.36-8.64c-1.816-0.057-0.714,2.807-2.4,2.88c-4.107-0.372-7.118-1.843-6.72-6.721
			c4.716-0.716,5.531,2.47,8.64,3.36c0.739-1.021,1.732-1.787,2.4-2.88c-0.833-0.768-1.04-2.16-0.96-3.84
			c1.336-0.147,3.595-2.125,4.32,0c-1.117,1.763-0.644,5.116-1.92,6.72c3.194-2.396,8.183,0.3,6.24,4.32
			c1.222,0.059,1.861,0.698,1.92,1.92c-1.222-0.248-1.862-0.818-1.92,0.96c0.306,0.974,2.244,0.316,2.4,1.439
			c-0.606,7.531,9.288,6.951,12.48,3.36c-1,0.956-0.016,2.05,0.96,2.4c0.117-3.411,2.818-6.772,2.88-8.641
			C81.863,225.543,80.866,226.626,79.2,227.04z M167.04,51.84c-0.887-1.513-1.182-3.618-3.36-3.84
			C162.155,50.247,164.742,53.322,167.04,51.84z M156.48,52.32c0.123-1.883-1.736-1.784-1.44-3.84c-0.64,0-1.28,0-1.92,0
			C153.324,50.789,154.169,53.532,156.48,52.32z M157.44,49.44c0,0.48,0,0.96,0,1.44c1.833,0.393,1.858-1.021,2.4-1.92
			C158.727,48.807,157.997,49.037,157.44,49.44z M182.88,56.16c0-2.24-0.582-3.898-2.88-3.84
			C178.728,54.188,180.315,56.606,182.88,56.16z M234.24,60.96c2.344-1.336,4.39-2.971,4.8-6.24
			c-0.372-0.107-0.946-0.013-0.96-0.479c-2.508,0.052-2.788,2.332-5.279,2.4c0,0.8,0,1.6,0,2.4c1.272,0.007,2.826-0.267,2.88,0.96
			C234.854,59.974,234.45,60.37,234.24,60.96z M162.24,59.04c0.069-1.693-2.626-3.102-3.36-2.4
			C160.152,57.288,160.19,59.17,162.24,59.04z M251.52,61.92c0.64,0,1.28,0,1.92,0c0.095-1.375,0.06-2.62-1.439-2.4
			C251.597,60.077,251.367,60.807,251.52,61.92z M160.8,64.32c-0.196-1.156,0.877-1.043,0.48-2.4
			c-1.405,0.125-1.475-1.085-2.88-0.96C158.828,62.452,158.894,64.306,160.8,64.32z M171.84,63.36
			c1.602,0.495,4.997,1.701,4.32,2.88c-2.02-0.077-2.301-2.177-4.32-0.96c-0.665-0.294-0.072-1.848-0.96-1.92
			c-0.373,2.066-1.752,1.267-2.4,0c-1.009,1.392-2.932,1.869-3.36,3.84c4.35,2.95,9.713,1.29,12.48-0.48
			c0.011-1.13-0.827-1.413-0.48-2.88C174.162,64.714,173.322,61.16,171.84,63.36z M179.04,66.24c0.479-0.642,1.297-0.943,1.44-1.92
			c-0.565-0.075-1.362,0.083-1.44-0.48c-0.027-0.292-0.072-0.568-0.48-0.48C178.222,64.558,178.087,65.333,179.04,66.24z
			 M219.84,71.52c0.619,1.942,2.221,2.898,3.36,4.32C223.372,73.268,222.192,70.03,219.84,71.52z M253.44,72.96
			c-0.114,1.875,1.783,1.737,2.88,2.4c-0.011-1.13,0.827-1.413,0.48-2.88C255.525,72.485,254.059,72.299,253.44,72.96z M41.28,77.28
			c1.883,4.597,3.837-1.806,6.72-1.92C44.892,72.152,44.345,77.502,41.28,77.28z M59.04,75.84c0.334,3.374-2.406,3.674-2.4,6.72
			c2.934-1.226,4.93-3.39,5.28-7.2C60.452,75.012,60.508,76.188,59.04,75.84z M224.16,80.16c0.374,0.106,0.559,0.402,0.48,0.96
			c1.229-0.051,2.288-0.272,2.88-0.96c-1.13-0.47-0.43-2.77-1.44-3.36C225.713,78.194,223.805,78.045,224.16,80.16z M277.92,86.4
			C280.042,89.765,280.952,84.912,277.92,86.4L277.92,86.4z M270.24,88.8c1.265,0.145,1.575-0.665,1.44-1.92
			C270.416,86.735,270.105,87.545,270.24,88.8z M31.68,101.28c2.531-2.941,2.056-5.771,3.36-8.16c-1.64,0.36-0.61-1.95-2.4-1.44
			C33.578,95.827,29.893,97.882,31.68,101.28z M42.24,97.92c1.06,0.06,0.204,2.036,0.48,2.88c-2.602,1.238-4.874,2.807-6.24,5.28
			c-0.034,1.794,0.771,2.749,1.92,3.36c0.896-4.65,4.631-8.664,8.64-8.64c0.725-2.475,3.011-3.389,4.8-4.8c0-0.48,0-0.96,0-1.44
			C47.25,94.29,46.202,97.562,42.24,97.92z M36,102.72c1.157-0.197,1.043,0.876,2.4,0.48c0.114-0.886,1.556-4.34-0.48-4.32
			C37.3,100.18,35.787,100.586,36,102.72z M280.8,101.76c0.206-0.753,1.51-0.41,0.96-1.92c-0.48,0-0.96,0-1.44,0
			C280.402,100.558,280.149,101.611,280.8,101.76z M260.16,115.2c0.547-1.053,1.239-1.961,0.96-3.84
			c3.595-0.291,6.611-3.932,4.801-6.72c-3.562-0.536-2.937,4.635-6.24,2.88c0.153,1.127,0.758,1.802,0.479,3.36
			c-1.188,0.731-2.854,0.985-3.359,2.4c0.989,0.291,3.334-0.774,2.88,0.96c-0.131,1.683-2.126-0.867-1.92,0.48
			C258.317,115.123,259.047,115.353,260.16,115.2z M305.28,113.76c0.908,0.108,1.06-0.541,1.92-0.48
			c-0.598-1.482-0.395-3.765-2.399-3.84C304.469,111.37,305.26,112.18,305.28,113.76z M269.76,121.44
			c1.373-1.706,2.641-2.528,2.399-4.8c-1.553-0.593-0.366,1.553-1.92,0.96c-0.698-1.862-2.295-2.825-4.319-3.36
			C266.689,117.151,267.814,119.707,269.76,121.44z M24.96,144.48c1.588-0.492,2.831-1.33,2.88-3.36
			c-0.557-0.403-1.287-0.633-2.4-0.48C25.449,142.148,23.855,143.318,24.96,144.48z M294.72,145.92
			c0.188-1.949-0.176-3.344-1.92-3.36C292.472,144.648,293.664,145.217,294.72,145.92z M299.52,145.92
			c1.536-0.063,2.111-1.088,1.92-2.88c-0.64,0-1.28,0-1.92,0C299.52,144,299.52,144.96,299.52,145.92z M26.4,150.24
			c1.518,0.708,2.308-2.758,0.48-2.4C27.277,149.197,26.204,149.083,26.4,150.24z M303.84,149.76c0-0.64,0-1.28,0-1.92
			c-0.48,0-0.96,0-1.44,0C302.265,149.095,302.576,149.905,303.84,149.76z M290.4,152.64c1.032-0.408,1.113-1.767,0.96-3.36
			C288.962,148.366,288.812,152.453,290.4,152.64z M42.72,153.6c0.107-1.708-0.324-2.876-1.44-3.36
			C41.418,151.701,41.204,153.516,42.72,153.6z M302.4,156.48c0.393-0.348,1.287-3.322-0.479-2.88
			C301.26,154.216,301.084,156.47,302.4,156.48z M303.84,161.28c1.306-1.414,2.198-3.241,2.88-5.28c-0.32,0-0.641,0-0.96,0
			C305.715,158.052,302.685,159.623,303.84,161.28z M21.6,162.24c2.963,0.954,3.643-4.097,1.92-4.8
			C22.929,159.089,21.029,159.429,21.6,162.24z M297.6,168.96c0.229-1.532,0.945-2.574,2.4-2.88c-0.791-2.41-0.717-5.684-1.44-8.16
			c-1.5,1.06-4.602,0.518-5.76,1.92c1.132,1.175,0.893-0.717,2.399-0.48c-0.151,3.352,2.072,4.328,1.92,7.68
			c-0.613,0.026-0.664,0.615-1.439,0.48C292.197,164.628,295.318,168.475,297.6,168.96z M273.12,162.24
			c-0.513-1.793,1.192-1.368,0.96-2.88c-0.8,0-1.6,0-2.399,0C271.69,160.791,271.635,162.285,273.12,162.24z M308.64,166.08
			c-0.235-2.156,0.243-3.597,0.479-5.28c-0.64,0-1.279,0-1.92,0C307.659,162.582,307.13,165.35,308.64,166.08z M26.88,162.72
			c-0.153,1.113,0.077,1.843,0.48,2.4c2.48,0.561,2.5-1.34,2.88-2.88C28.965,162.245,27.499,162.059,26.88,162.72z M293.28,166.08
			c-0.09-1.83-0.682-3.158-2.399-3.36c-0.32,0-0.641,0-0.96,0C290.046,164.712,291.649,167.116,293.28,166.08z M2.4,169.92
			c-0.291-0.989,0.775-3.334-0.96-2.88C1.73,168.029,0.666,170.375,2.4,169.92z M21.12,180c5.252-1.325,0.507-10.652-0.96-12.96
			C19.833,172.918,24.198,175.263,21.12,180z M41.76,171.36c1.357-0.396,1.244,0.677,2.4,0.48c0.663-1.466,0.824-4.008-0.96-4.32
			C42.883,168.963,41.355,169.195,41.76,171.36z M289.44,177.12c4.793,0.953,3.02-4.66,3.36-8.16c-1.354-0.727-3.001-1.16-5.28-0.96
			C287.542,170.053,289.454,173.521,289.44,177.12z M308.16,176.64c-0.134-2.054,1.467-2.374,0.96-4.8
			c-0.685-0.115-0.81-0.79-1.439-0.96C307.067,171.985,305.412,176.551,308.16,176.64z M300.96,174.72
			c-0.291-0.99,0.774-3.335-0.96-2.88C299.015,172.818,299.544,174.731,300.96,174.72z M29.28,186.72c2.388,0.468,1.9-1.94,3.36-2.4
			c1.172,0.268,1.022,1.857,2.88,1.44c0.218-2.298-0.521-3.639-1.92-4.32c-0.116,0.844-0.826,1.094-1.92,0.96
			c1.859-2.19,0.784-6.729-2.88-6.24C29.286,178.749,28.639,183.287,29.28,186.72z M295.2,180.48
			c-0.206-1.553,0.632-4.151-0.96-4.32C293.935,177.268,293.775,179.81,295.2,180.48z M271.2,185.28
			c1.433,0.008,1.632,1.248,2.88,1.44c0.09-2.661-0.058-7.606-1.92-6.72C273.467,180.188,270.956,183.146,271.2,185.28z
			 M300.96,189.6c0.74-2.522,5.443-4.893,2.88-7.68C303.847,185.135,299.347,186.376,300.96,189.6z M21.12,209.28
			c-0.157-1.763-0.55-3.291-1.44-4.32c-1.478-0.357-0.923,1.317-2.4,0.96c-1.165-1.123-1.974-3.343-0.96-5.28
			C12.759,203.512,16.752,209.709,21.12,209.28z M11.04,191.04c-0.222,5.022,0.254,9.346,3.84,10.56
			C15.196,196.484,13.334,193.546,11.04,191.04z M291.84,204.48c1.279,0,2.56,0,3.84,0c-0.079-1.52,1.275-1.604,0.96-3.36
			c-1.131-0.011-1.413,0.827-2.88,0.479c-0.304-1.616-1.379-2.461-0.96-4.8c-0.702-1.058-3.802,0.282-3.84-1.44
			c-0.581-1.478,2.095-3.397,0-3.36C286.169,196.6,289.377,202.086,291.84,204.48z M273.6,195.36c0.96,0,1.92,0,2.88,0
			c0.612-2.372-1.209-2.312-2.4-2.88C273.527,193.047,273.537,194.177,273.6,195.36z M277.92,198.24
			c-0.287,4.446,5.122,3.197,8.159,4.319c0.479-2.718-1.438-3.041-0.96-5.76c-2.71,0.63-2.257-1.903-4.319-1.92
			C281.035,197.194,278.026,196.267,277.92,198.24z M30.24,204.96c0.235-3.755-1.319-5.722-3.36-7.2
			C26.73,201.43,28.077,203.603,30.24,204.96z M272.64,201.6c0.64,0,1.28,0,1.92,0C274.938,199.752,272.262,199.752,272.64,201.6z
			 M36.48,208.32c1.651-1.254,0.908-5.201-1.44-5.28C34.571,204.515,35.177,207.226,36.48,208.32z M30.24,219.36
			c1.628-3.842-2.937-4.853-2.88-8.641c0.086-1.354,2.282-0.599,1.92-2.399C21.513,199.422,27.5,217.586,30.24,219.36z M31.2,224.16
			c0.429-2.189-1.579-1.941-2.88-2.4C28.08,223.761,29.536,224.063,31.2,224.16z M66.24,233.76c-0.204-2.196-0.811-3.989-2.88-4.319
			C62.331,230.976,64.73,234.764,66.24,233.76z M84,231.84c0.886,0.114,4.34,1.556,4.32-0.479
			C87.362,230.187,84.788,230.43,84,231.84z M60.48,237.6c0.435-0.846,1.767-0.793,1.92-1.92
			C61.417,235.703,58.822,236.521,60.48,237.6z M67.2,251.04c1.192,0.624,1.992-1.408,2.4,0c-1.53,5.428,4.309,9.553,9.12,8.64
			c0.19,1.15-2.187-0.266-1.44,1.44c2.696-0.185,2.424-3.336,5.28-3.36c-0.063,1.184-0.073,2.313,0.48,2.88
			c2.262,0.161,4.691-4.923,6.24-0.96c-0.836-0.036-1.493,0.107-1.92,0.48c0.288,2.432,1.594,3.846,1.44,6.72
			c4.163,1.442,4.879,4.837,5.76,8.64c5.235-0.204,8.599-2.28,11.04-5.279c-1.211-0.869-2.514-1.646-4.8-1.44
			c-0.665,0.295-0.072,1.848-0.96,1.92c-0.325-1.115-1.595-1.284-1.92-2.399c0.724-0.876,0.509-2.691,1.44-3.36
			c1.676,0.11,5.551,2.572,5.28-0.96c-1.6,0-3.2,0-4.8,0c-0.692-1.067-1.205-2.314-0.96-4.32c-1.512,0.232-1.086-1.473-2.88-0.96
			c-1.667,2.115,2.068,1.996,0.48,3.84c-2.616-1.703-4.362-4.277-6.24-6.72c1.991-1.657,4.31-8.435-0.96-8.16
			c1.849,2.405-0.57,5.217-1.92,7.2c-2.167-0.713-5.118-0.642-6.72-1.92c1.544-0.938,3.396-1.357,4.8,0
			c1.139-1.66,2.449-5.552,0-6.72c1.796-0.924,0.359-5.081,1.44-6.721c-3.328,0.662-9.778,1.169-10.56,4.801
			c-5.178-0.583-7.73-3.79-11.04-6.24C66.624,241.696,64.448,248.832,67.2,251.04z M50.88,242.4c1.427,0.571,2.062-2.023,0.96-2.4
			C51.635,240.915,50.469,240.868,50.88,242.4z M119.52,247.2c1.75-1.05,3.186,0.397,3.36-2.4
			C120.847,244.687,120.037,245.797,119.52,247.2z M121.44,250.56c-2.732,0.813-1.875-1.964-2.88-2.88
			c0.253,3.688,3.432,4.68,2.88,9.12c-3.723-0.043-4.667,2.693-7.68,3.36c0.536,5.391,7.452,5.546,11.04,2.88c0-0.8,0-1.6,0-2.4
			c-0.568-1.182-1.813,0.983-2.4-0.479c0.254-3.746,1.585-6.415,1.44-10.561c-3.091,1.075-2.054-1.975-2.4-2.399
			C120.784,248.231,119.846,249.903,121.44,250.56z M60.48,265.44c0.487-2.073,0.73-4.391,1.44-6.24
			c-1.814-0.105-2.331-1.509-3.84-1.92C57.922,260.958,58.154,264.246,60.48,265.44z M110.4,263.04c0.006-1.728,1.302-3.617,0-4.32
			C110.566,260.044,109.022,262.091,110.4,263.04z M86.4,267.36c0.64,0,1.28,0,1.92,0C88.698,265.512,86.022,265.512,86.4,267.36z
			 M110.88,271.68c-0.105,0.061-1.428-0.075-1.44,0c-0.672,4.162,2.407,10.033-6.24,8.16c-0.662,0.619-0.475,2.085-0.48,3.36
			c-2.439-0.359-3.682,0.479-4.32,1.92c6.264-0.119,11.419-5.567,15.36-2.4c1.066-1.792-2.591-2.35-1.92-5.279
			c0.239-1.682,2.677-1.164,3.36-2.4c-1.099-1.941-2.028-4.053-2.88-6.24c-0.8,0-1.6,0-2.4,0
			C109.54,270.46,110.454,270.826,110.88,271.68z M119.52,273.6c-0.234,3.274,1.64,4.44,2.4,6.721
			c2.334-0.706,3.436-2.645,5.28-3.84c-0.502-1.099-0.305-2.896-0.96-3.841C123.458,272.418,121.92,273.439,119.52,273.6z
			 M191.04,281.28c0.385,1.665-0.715,1.845-0.48,3.359c2.676,0.548,5.341,3.024,7.2,0.48c-0.98-1.281-0.873-1.407-2.88-0.96
			C194.638,281.414,193.752,280.571,191.04,281.28z M122.88,284.64c0.499,0.507,3.428,0.991,3.84,0
			C125.675,284.277,123.342,282.753,122.88,284.64z M206.88,290.88c1.813,0.212,2.253-0.946,3.36-1.439
			c-0.032-1.408-1.097-1.783-1.92-2.4C207.709,288.189,206.567,288.808,206.88,290.88z M194.88,289.44
			c-0.98-1.025-1.899,0.135-2.88,0.479c0.107-0.907-0.541-1.059-0.48-1.92c-0.8,0-1.6,0-2.4,0
			C188.564,290.689,193.907,291.324,194.88,289.44z M208.8,291.84c0.675,0.125,0.547,1.053,0.96,1.44
			c2.574,0.174,4.722-0.078,5.76-1.44C212.967,292.384,210.349,289.271,208.8,291.84z M178.56,292.32c0,1.12,0,2.239,0,3.359
			c-2.284-0.523-1.959,1.562-1.92,3.36c-1.055,1.025-3.781,0.379-4.32,1.92c2.773,0.747,2.264,4.776,6.24,4.32
			c1.152-0.607-0.265-3.785,0.96-4.32c0.973,0.627,0.659,2.541,1.92,2.88c1.563-0.677,2.973-1.508,2.4-4.32
			c2.46,0.061,2.362-2.438,4.8-2.399c0.172-3.053-2.347-3.413-3.36-5.28c-1.31-0.35-0.966,0.954-1.92,0.96
			C183.729,289.949,179.216,291.724,178.56,292.32z M158.88,296.64c2.713,0.313,4.359-0.44,5.28-1.92
			c-1.184,0.063-2.313,0.073-2.88-0.479C161.742,296.302,158.922,295.082,158.88,296.64z M217.44,300c-0.96,0-1.92,0-2.88,0
			C214.446,301.822,217.554,301.822,217.44,300z M160.32,303.84c0.834,1.264,3.333,0.172,3.36-0.96
			C162.59,303.229,159.935,302.016,160.32,303.84z M148.8,308.64c1.284,0.477,2.531,0.989,4.32,0.96
			c-0.232-1.512,1.473-1.086,0.96-2.88C152.172,307.213,149.496,306.936,148.8,308.64z M141.6,315.36
			c1.846-0.394,4.105-0.375,4.32-2.4C143.793,313.073,141.787,313.307,141.6,315.36z" clip-rule="evenodd" fill="#fe0001" class="color000 svgShape"></path><path fill-rule="evenodd" d="M150.24 71.52c-.557.403-1.287.633-2.4.48 1.114-1.106-.888-1.548-.48-3.36 2.854.026 2.919 2.841 3.84 4.8C150.355 73.324 150.106 72.614 150.24 71.52zM226.08 86.88c-.386.254-.779.501-1.439.48.013.467.587.373.96.48-.148.651-1.202.398-1.92.48-.35-1.31.953-.966.96-1.92 2.032-.503 4.297 2.208 1.439 2.4C226.879 87.846 226.037 88.189 226.08 86.88zM227.52 91.2c2.755.131 3.719 6.196 3.36 11.04C225.974 101.28 229.768 94.446 227.52 91.2zM277.44 154.56c.254-.739.501-.031.48.48-.081 1.041 1.702.217 2.399.48-.07 1.19-.089 2.33.96 2.4-.01 1.316-2.265 1.14-2.88.48C279.647 156.381 277.631 156.384 277.44 154.56zM97.44 162.72c1.247-.54 4.68 1.313 6.24-.48.649 2.55 3.312 3.088 5.28 4.32 0 1.28 0 2.56 0 3.84-1.965-1.235-2.46-3.939-3.84-5.76-1.197-.342-1.973 2.113-2.88.48-1.511.088-.614 2.585-2.4 2.4-1.051-.999.421-1.551-.48-2.4-.821-.021-1.243.356-1.44.96C96.157 165.49 99.083 163.19 97.44 162.72zM155.04 198.24c1.177-.806 1.678-4.092 3.84-2.4.135-.775-.454-.826-.48-1.44-1.094-.134-1.804.116-1.92.96-.73-.453 1.152-2.335 2.4-2.4-.69.844-.44 1.094.96.96-.548 5.212-2.265 9.255-7.68 9.6.988-2.212 1.849-4.551 2.88-6.72C155.752 197.01 154.851 197.414 155.04 198.24zM86.88 206.4c2.787.157-5.238 4.159-5.28 7.68-3.579-3.338-9.099-.714-12.96 2.88-1.019-.741-2.139-1.381-3.36-1.92 3.957-1.004 6.296-3.624 8.16-6.72 3.004-.299 4.543.68 6.72 0 .986-.134.958-1.282 1.44-1.92C83.422 205.941 87.862 207.16 86.88 206.4zM105.6 61.44c1.457.943 3.646 1.154 6.24.96-.698 5.411-1.078 15.221-4.32 19.68 1.553.593.367-1.553 1.92-.96.213.427.421.858.96.96-.101 3.259-4.599 2.121-5.28 4.8-1.926-.313-.526-3.954-3.36-3.36-.146-1.266 1.002-1.238 1.92-1.44-1.958-1.722-2.119-5.242-5.76-5.28.106-3.094 2.016-4.384 2.88-6.72.591.209.986.614.96 1.44.691-.269 1.171-.749 1.44-1.44-.31-2.582-3.681-3.532-6.24-2.4 0-1.12 0-2.24 0-3.36C100.512 64.032 104.569 64.25 105.6 61.44z" clip-rule="evenodd" fill="#fe0001" class="color000 svgShape"></path></svg></g></svg>